0
SECTION
2
HEADER
9
$INSUNITS
70
4
9
$ACADVER
1
AC1009
0
ENDSEC
0
SECTION
2
TABLES
0
TABLE
2
LAYER
70
8
0
LAYER
2
0
70
0
62
7
6
CONTINUOUS
0
LAYER
2
M2_THRU
70
0
62
3
6
CONTINUOUS
0
LAYER
2
M2_CB
70
0
62
4
6
CONTINUOUS
0
LAYER
2
M3_THRU
70
0
62
1
6
CONTINUOUS
0
LAYER
2
M3_CB
70
0
62
6
6
CONTINUOUS
0
LAYER
2
QTR_INCH_TAP
70
0
62
5
6
CONTINUOUS
0
LAYER
2
THREE_EIGHT_TAP
70
0
62
2
6
CONTINUOUS
0
LAYER
2
REF
70
0
62
8
6
CONTINUOUS
0
ENDTAB
0
ENDSEC
0
SECTION
2
ENTITIES
0
LINE
8
0
10
0.000
20
0.000
30
0.0
11
100.000
21
0.000
31
0.0
0
LINE
8
0
10
100.000
20
0.000
30
0.0
11
100.000
21
100.000
31
0.0
0
LINE
8
0
10
100.000
20
100.000
30
0.0
11
0.000
21
100.000
31
0.0
0
LINE
8
0
10
0.000
20
100.000
30
0.0
11
0.000
21
0.000
31
0.0
0
CIRCLE
8
M2_THRU
10
39.500
20
44.000
30
0.0
40
1.200
0
CIRCLE
8
M2_CB
10
39.500
20
44.000
30
0.0
40
2.000
0
CIRCLE
8
M2_THRU
10
39.500
20
56.000
30
0.0
40
1.200
0
CIRCLE
8
M2_CB
10
39.500
20
56.000
30
0.0
40
2.000
0
CIRCLE
8
M2_THRU
10
61.500
20
44.000
30
0.0
40
1.200
0
CIRCLE
8
M2_CB
10
61.500
20
44.000
30
0.0
40
2.000
0
CIRCLE
8
M2_THRU
10
61.500
20
56.000
30
0.0
40
1.200
0
CIRCLE
8
M2_CB
10
61.500
20
56.000
30
0.0
40
2.000
0
CIRCLE
8
M3_THRU
10
38.000
20
40.000
30
0.0
40
1.700
0
CIRCLE
8
M3_CB
10
38.000
20
40.000
30
0.0
40
2.750
0
CIRCLE
8
M3_THRU
10
38.000
20
60.000
30
0.0
40
1.700
0
CIRCLE
8
M3_CB
10
38.000
20
60.000
30
0.0
40
2.750
0
CIRCLE
8
M3_THRU
10
61.500
20
50.000
30
0.0
40
1.700
0
CIRCLE
8
M3_CB
10
61.500
20
50.000
30
0.0
40
2.750
0
CIRCLE
8
QTR_INCH_TAP
10
43.000
20
82.000
30
0.0
40
2.550
0
CIRCLE
8
QTR_INCH_TAP
10
10.000
20
10.000
30
0.0
40
2.550
0
CIRCLE
8
QTR_INCH_TAP
10
90.000
20
10.000
30
0.0
40
2.550
0
CIRCLE
8
QTR_INCH_TAP
10
10.000
20
90.000
30
0.0
40
2.550
0
CIRCLE
8
QTR_INCH_TAP
10
90.000
20
90.000
30
0.0
40
2.550
0
CIRCLE
8
THREE_EIGHT_TAP
10
57.000
20
82.000
30
0.0
40
3.969
0
CIRCLE
8
THREE_EIGHT_TAP
10
10.000
20
20.000
30
0.0
40
3.969
0
CIRCLE
8
THREE_EIGHT_TAP
10
90.000
20
20.000
30
0.0
40
3.969
0
CIRCLE
8
THREE_EIGHT_TAP
10
10.000
20
80.000
30
0.0
40
3.969
0
CIRCLE
8
THREE_EIGHT_TAP
10
90.000
20
80.000
30
0.0
40
3.969
0
LINE
8
REF
10
35.000
20
35.500
30
0.0
11
65.000
21
35.500
31
0.0
0
LINE
8
REF
10
65.000
20
35.500
30
0.0
11
65.000
21
64.500
31
0.0
0
LINE
8
REF
10
65.000
20
64.500
30
0.0
11
35.000
21
64.500
31
0.0
0
LINE
8
REF
10
35.000
20
64.500
30
0.0
11
35.000
21
35.500
31
0.0
0
ENDSEC
0
EOF
