0
SECTION
2
HEADER
9
$INSUNITS
70
4
9
$ACADVER
1
AC1009
0
ENDSEC
0
SECTION
2
TABLES
0
TABLE
2
LAYER
70
12
0
LAYER
2
OUTLINE
70
0
62
7
6
CONTINUOUS
0
LAYER
2
DRILL_M2_CLR
70
0
62
3
6
CONTINUOUS
0
LAYER
2
CB_M2
70
0
62
4
6
CONTINUOUS
0
LAYER
2
DRILL_M3_CLR
70
0
62
1
6
CONTINUOUS
0
LAYER
2
CB_M3
70
0
62
6
6
CONTINUOUS
0
LAYER
2
TAPDRILL_1_4
70
0
62
5
6
CONTINUOUS
0
LAYER
2
TAP_1_4_20
70
0
62
5
6
CONTINUOUS
0
LAYER
2
TAPDRILL_3_8
70
0
62
2
6
CONTINUOUS
0
LAYER
2
TAP_3_8_16
70
0
62
2
6
CONTINUOUS
0
LAYER
2
REF_CAMERA
70
0
62
8
6
CONTINUOUS
0
ENDTAB
0
ENDSEC
0
SECTION
2
ENTITIES
0
LINE
8
OUTLINE
10
0.000
20
0.000
30
0.0
11
100.000
21
0.000
31
0.0
0
LINE
8
OUTLINE
10
100.000
20
0.000
30
0.0
11
100.000
21
100.000
31
0.0
0
LINE
8
OUTLINE
10
100.000
20
100.000
30
0.0
11
0.000
21
100.000
31
0.0
0
LINE
8
OUTLINE
10
0.000
20
100.000
30
0.0
11
0.000
21
0.000
31
0.0
0
CIRCLE
8
DRILL_M2_CLR
10
44.000
20
60.500
30
0.0
40
1.200
0
CIRCLE
8
DRILL_M2_CLR
10
56.000
20
60.500
30
0.0
40
1.200
0
CIRCLE
8
DRILL_M2_CLR
10
44.000
20
38.500
30
0.0
40
1.200
0
CIRCLE
8
DRILL_M2_CLR
10
56.000
20
38.500
30
0.0
40
1.200
0
CIRCLE
8
CB_M2
10
44.000
20
60.500
30
0.0
40
2.000
0
CIRCLE
8
CB_M2
10
56.000
20
60.500
30
0.0
40
2.000
0
CIRCLE
8
CB_M2
10
44.000
20
38.500
30
0.0
40
2.000
0
CIRCLE
8
CB_M2
10
56.000
20
38.500
30
0.0
40
2.000
0
CIRCLE
8
DRILL_M3_CLR
10
40.000
20
62.000
30
0.0
40
1.700
0
CIRCLE
8
DRILL_M3_CLR
10
60.000
20
62.000
30
0.0
40
1.700
0
CIRCLE
8
DRILL_M3_CLR
10
50.000
20
41.300
30
0.0
40
1.700
0
CIRCLE
8
CB_M3
10
40.000
20
62.000
30
0.0
40
2.750
0
CIRCLE
8
CB_M3
10
60.000
20
62.000
30
0.0
40
2.750
0
CIRCLE
8
CB_M3
10
50.000
20
41.300
30
0.0
40
2.750
0
CIRCLE
8
TAPDRILL_1_4
10
50.000
20
49.500
30
0.0
40
2.550
0
CIRCLE
8
TAP_1_4_20
10
50.000
20
49.500
30
0.0
40
3.175
0
CIRCLE
8
TAPDRILL_1_4
10
10.000
20
10.000
30
0.0
40
2.550
0
CIRCLE
8
TAP_1_4_20
10
10.000
20
10.000
30
0.0
40
3.175
0
CIRCLE
8
TAPDRILL_1_4
10
90.000
20
10.000
30
0.0
40
2.550
0
CIRCLE
8
TAP_1_4_20
10
90.000
20
10.000
30
0.0
40
3.175
0
CIRCLE
8
TAPDRILL_1_4
10
10.000
20
90.000
30
0.0
40
2.550
0
CIRCLE
8
TAP_1_4_20
10
10.000
20
90.000
30
0.0
40
3.175
0
CIRCLE
8
TAPDRILL_1_4
10
90.000
20
90.000
30
0.0
40
2.550
0
CIRCLE
8
TAP_1_4_20
10
90.000
20
90.000
30
0.0
40
3.175
0
CIRCLE
8
TAPDRILL_3_8
10
65.000
20
49.500
30
0.0
40
3.969
0
CIRCLE
8
TAP_3_8_16
10
65.000
20
49.500
30
0.0
40
4.763
0
CIRCLE
8
TAPDRILL_3_8
10
10.000
20
20.000
30
0.0
40
3.969
0
CIRCLE
8
TAP_3_8_16
10
10.000
20
20.000
30
0.0
40
4.763
0
CIRCLE
8
TAPDRILL_3_8
10
90.000
20
20.000
30
0.0
40
3.969
0
CIRCLE
8
TAP_3_8_16
10
90.000
20
20.000
30
0.0
40
4.763
0
CIRCLE
8
TAPDRILL_3_8
10
10.000
20
80.000
30
0.0
40
3.969
0
CIRCLE
8
TAP_3_8_16
10
10.000
20
80.000
30
0.0
40
4.763
0
CIRCLE
8
TAPDRILL_3_8
10
90.000
20
80.000
30
0.0
40
3.969
0
CIRCLE
8
TAP_3_8_16
10
90.000
20
80.000
30
0.0
40
4.763
0
LINE
8
REF_CAMERA
10
35.500
20
35.000
30
0.0
11
64.500
21
35.000
31
0.0
0
LINE
8
REF_CAMERA
10
64.500
20
35.000
30
0.0
11
64.500
21
65.000
31
0.0
0
LINE
8
REF_CAMERA
10
64.500
20
65.000
30
0.0
11
35.500
21
65.000
31
0.0
0
LINE
8
REF_CAMERA
10
35.500
20
65.000
30
0.0
11
35.500
21
35.000
31
0.0
0
ENDSEC
0
EOF
