<svg width="380" height="333" viewBox="0 0 380 333" fill="none" xmlns="http://www.w3.org/2000/svg">
<path d="M241.818 192.841V332.66H292.997V132.887L241.818 192.841Z" fill="white"/>
<path d="M176.281 243.82L143.385 283.024L51.1784 205.653V332.66H0V95.9008L176.281 243.82Z" fill="white"/>
<path d="M248.572 100.519C251.5 96.9635 256.756 96.4543 260.312 99.3815C262.158 100.901 263.181 103.048 263.329 105.259C263.322 105.959 263.166 106.593 262.943 107.3C262.626 108.307 261.851 109.68 261.466 110.334L259.766 113.032C258.07 115.72 258.874 119.275 261.563 120.971C263.681 122.307 266.336 122.09 268.197 120.623C268.592 120.35 268.958 120.021 269.283 119.637L274.464 113.505C274.653 113.283 274.82 113.049 274.967 112.807L277.986 109.284C281.008 105.755 286.319 105.344 289.848 108.366C293.377 111.389 293.788 116.7 290.766 120.229L284.089 128.025L284.093 128.028L148.391 287.27L114.515 258.81L240.142 110.92C240.362 110.548 240.613 110.188 240.896 109.844L248.572 100.519Z" fill="#018DEF"/>
<path d="M284.04 85.7241C284.04 90.6704 280.03 94.6803 275.084 94.6803C270.137 94.6803 266.127 90.6704 266.127 85.7241C266.127 80.7777 270.137 76.7678 275.084 76.7678C280.03 76.7678 284.04 80.7777 284.04 85.7241Z" fill="#018DEF"/>
<path d="M303.232 63.3337C303.232 67.9268 299.508 71.6502 294.915 71.6502C290.322 71.6502 286.599 67.9268 286.599 63.3337C286.599 58.7406 290.322 55.0172 294.915 55.0172C299.508 55.0172 303.232 58.7406 303.232 63.3337Z" fill="#018DEF"/>
<path d="M321.144 42.862C321.144 46.7484 317.993 49.899 314.107 49.899C310.22 49.899 307.07 46.7484 307.07 42.862C307.07 38.9755 310.22 35.825 314.107 35.825C317.993 35.825 321.144 38.9755 321.144 42.862Z" fill="#018DEF"/>
<path d="M337.777 23.6702C337.777 26.85 335.2 29.4277 332.02 29.4277C328.84 29.4277 326.262 26.85 326.262 23.6702C326.262 20.4904 328.84 17.9126 332.02 17.9126C335.2 17.9126 337.777 20.4904 337.777 23.6702Z" fill="#018DEF"/>
<path d="M355.69 4.47824C355.69 6.95143 353.685 8.95635 351.212 8.95635C348.738 8.95635 346.733 6.95143 346.733 4.47824C346.733 2.00504 348.738 0.00012207 351.212 0.00012207C353.685 0.00012207 355.69 2.00504 355.69 4.47824Z" fill="#018DEF"/>
<path d="M312.188 93.4009C312.188 98.3473 308.178 102.357 303.232 102.357C298.285 102.357 294.275 98.3473 294.275 93.4009C294.275 88.4545 298.285 84.4447 303.232 84.4447C308.178 84.4447 312.188 88.4545 312.188 93.4009Z" fill="#018DEF"/>
<path d="M331.38 71.0103C331.38 75.6034 327.656 79.3268 323.063 79.3268C318.47 79.3268 314.747 75.6034 314.747 71.0103C314.747 66.4173 318.47 62.6938 323.063 62.6938C327.656 62.6938 331.38 66.4173 331.38 71.0103Z" fill="#018DEF"/>
<path d="M349.292 50.539C349.292 54.4254 346.142 57.576 342.255 57.576C338.369 57.576 335.218 54.4254 335.218 50.539C335.218 46.6525 338.369 43.502 342.255 43.502C346.142 43.502 349.292 46.6525 349.292 50.539Z" fill="#018DEF"/>
<path d="M364.646 30.0676C364.646 33.2475 362.068 35.8252 358.888 35.8252C355.709 35.8252 353.131 33.2475 353.131 30.0676C353.131 26.8878 355.709 24.3101 358.888 24.3101C362.068 24.3101 364.646 26.8878 364.646 30.0676Z" fill="#018DEF"/>
<path d="M379.999 13.4347C379.999 15.9079 377.994 17.9128 375.521 17.9128C373.048 17.9128 371.043 15.9079 371.043 13.4347C371.043 10.9615 373.048 8.95654 375.521 8.95654C377.994 8.95654 379.999 10.9615 379.999 13.4347Z" fill="#018DEF"/>
</svg>
